<svg height="80" viewBox="0 0 80 80" width="80" xmlns="http://www.w3.org/2000/svg"><g fill="none" fill-rule="evenodd"><path d="m40.1667197 79.461682c-21.6598498 0-39.28089174-17.7180648-39.28089174-39.4958819 0-21.778704 17.62104194-39.4963253 39.28089174-39.4963253 21.6611731 0 39.2835384 17.7176213 39.2835384 39.4963253 0 .9535141-.0344067 1.9101326-.1023377 2.8432458-.071901 1.0342301-.1892364 2.0866435-.3484773 3.1244216-.5730026 3.8202651-1.7009221 7.5216735-3.3515577 10.9977865-2.3400913 4.9440812-5.6215125 9.2788003-9.7520714 12.8813094-2.8901561 2.521712-6.1221729 4.6003726-9.6060637 6.1774405-.6312292.2878282-1.2884839.563682-2.0052885.8426403-4.5006506 1.7442654-9.2500875 2.6290378-14.1177421 2.6290378" fill="#171517"/><path d="m68.2738065 11.7075459c-7.5088173-7.54897293-17.4903226-11.70767563-28.1083871-11.70767563-10.6150538 0-20.5965592 4.1587027-28.1053764 11.70767563-7.50580644 7.5494055-11.64129031 17.5848649-11.64129031 28.2572973 0 10.6754595 4.13548387 20.710919 11.64129031 28.2598919 7.5088172 7.5494054 17.4903226 11.7050811 28.1053764 11.7050811 4.9260215 0 9.7329032-.8955676 14.2855914-2.6611892.7260215-.2819459 1.3913978-.5608648 2.036129-.8549189 3.5204301-1.5935135 6.7913978-3.696 9.7156989-6.246054 4.1767742-3.6467027 7.4972043-8.032 9.8662366-13.0365406 1.6683871-3.5161081 2.8111828-7.2614054 3.392258-11.1321081.1591398-1.0438919.2778495-2.1111351.3531183-3.1610811.0666667-.9422702.1010753-1.9104865.1010753-2.8730811 0-10.6724324-4.1329032-20.7078918-11.6417204-28.2572973zm-63.50236564 17.8962163c4.45978495-15.4214054 18.61849464-26.69578382 35.39397854-26.69578382 20.3565591 0 36.8580645 16.59329732 36.8580645 37.05686482 0 .8955676-.0322581 1.7855136-.0954839 2.6668109-.0696774.9885405-.1793548 1.9658378-.3273118 2.931027-.5462366 3.6410811-1.6193549 7.1074594-3.1436559 10.3178378-2.1982796 4.6438919-5.3307527 8.7558919-9.151828 12.0886487-2.6894624 2.3468108-5.723871 4.3065946-9.0124731 5.7954594-.6189247.2823784-1.2464516.544-1.8830108.7913514-4.1101075 1.5935135-8.5759139 2.4657297-13.244301 2.4657297-20.3535484 0-36.8546237-16.5902703-36.8546237-37.0568649 0-3.030054.36129032-5.9762162 1.04430107-8.7965405z" fill="#f6c02d"/><path d="m77.1337852 45.7816167c-.5528871 3.682512-1.6377811 7.1883335-3.1794268 10.435242-2.2232933 4.697171-5.3914101 8.8555231-9.2555294 12.2262024-2.7205001 2.3730773-5.7894365 4.3555983-9.1154589 5.8614046-.6172673.0502956-1.2432346.0739127-1.8722469.0739127-13.178374 0-23.8650587-10.7409518-23.8650587-23.9936216 0-13.2526699 10.6866847-23.9936217 23.8650587-23.9936217 11.6162831 0 21.2902841 8.3407586 23.422662 19.3904816" fill="#f6c02d"/><path d="m74.2592688 50.1145946c0 2.0008649-.2778494 3.9347027-.8012903 5.7669189-2.1982796 4.6438919-5.3307527 8.7558919-9.1513979 12.0886487-3.1617204 1.9511351-6.884301 3.0732973-10.864086 3.0732973-11.4941935 0-20.8137634-9.3695136-20.8137634-20.9288649 0-11.5589189 9.3195699-20.9288649 20.8137634-20.9288649 11.4972043 0 20.8167742 9.369946 20.8167742 20.9288649" fill="#cea034"/><path d="m70.2328172 44.2739459c-.7617204 10.7783784-7.7376344 19.8278919-17.3466667 23.5468109-9.532043-.2936217-17.172043-8.1548109-17.172043-17.8131892 0-9.8456217 7.9384947-17.8244325 17.7286022-17.8244325 7.7978494 0 14.4176344 5.0577298 16.7901075 12.0908108" fill="#6d6e71"/><path d="m60.1211613 62.4162595c-4.6950538 3.5654054-10.5810753 4.425081-15.8124731 2.8393513 6.015914 3.6406487 13.8795699 3.4672433 19.8292473-1.0512432 7.8137634-5.9342703 9.3621505-17.1122162 3.4610753-24.9664865-2.3569893-3.1372973-5.5445162-5.2700541-9.0223656-6.3221622 1.8903225 1.1420541 3.5965591 2.6581622 5.0055914 4.5340541 5.9010752 7.8547027 4.3526881 19.0326486-3.4610753 24.9664865" fill="#58595b"/><g fill="#fff"><path d="m53.7789677 14.2251243.4606452.8458379.8408602.4627027-.8408602.4627027-.4606452.8458378-.460215-.8458378-.8412903-.4627027.8412903-.4627027z"/><path d="m16.6566022 37.3093189.460215.8458379.8412903.4627027-.8412903.4627027-.460215.8462702-.4602151-.8462702-.8412903-.4627027.8412903-.4627027z"/><path d="m31.4113978 68.1203027.4602151.8458378.8412903.4627027-.8412903.4627027-.4602151.8458379-.4606451-.8458379-.8412903-.4627027.8412903-.4627027z"/><path d="m25.6756129 21.6060973.4602151.8458378.8412903.4627027-.8412903.4627027-.4602151.8458379-.4602151-.8458379-.8412903-.4627027.8412903-.4627027z"/><path d="m64.8664516 20.8164757.4602151.8458378.8412903.4627027-.8412903.4627027-.4602151.8462703-.460215-.8462703-.8412904-.4627027.8412904-.4627027z"/><path d="m25.7228817 63.3705081c0 .2676757-.215914.4847568-.4821505.4847568-.2662366 0-.4817204-.2170811-.4817204-.4847568s.2154838-.4847567.4817204-.4847567c.2662365 0 .4821505.217081.4821505.4847567"/><path d="m24.1067957 30.7399351c0 .2676757-.215914.4847568-.4821505.4847568-.2662366 0-.4821506-.2170811-.4821506-.4847568 0-.2676756.215914-.4847567.4821506-.4847567.2662365 0 .4821505.2170811.4821505.4847567"/><path d="m50.211914 21.3012757c0 .2676757-.215914.4847567-.4821506.4847567-.2662365 0-.4821505-.217081-.4821505-.4847567s.215914-.4847568.4821505-.4847568c.2662366 0 .4821506.2170811.4821506.4847568"/><path d="m23.432043 51.6291892c0 .2676757-.215914.4847567-.4825806.4847567-.2658065 0-.4817205-.217081-.4817205-.4847567s.215914-.4847568.4817205-.4847568c.2666666 0 .4825806.2170811.4825806.4847568"/><path d="m71.3262366 28.0866595c0 .2676756-.215914.4847567-.4821506.4847567-.2662365 0-.4817204-.2170811-.4817204-.4847567 0-.2676757.2154839-.4847568.4817204-.4847568.2662366 0 .4821506.2170811.4821506.4847568"/><path d="m17.1650323 29.1404108c0 .2676757-.215914.4847568-.4821506.4847568-.2662365 0-.4821505-.2170811-.4821505-.4847568s.215914-.4847567.4821505-.4847567c.2662366 0 .4821506.217081.4821506.4847567"/></g><g fill="#8e9092"><path d="m43.1738495 42.5297297c-.5329033 0-.9643011.4337298-.9643011.9695135 0 .5353514.4313978.9695136.9643011.9695136.532043 0 .9638709-.4341622.9638709-.9695136 0-.5357837-.4318279-.9695135-.9638709-.9695135"/><path d="m58.5030108 39.4278054c-.5320431 0-.963871.4337297-.963871.9695135 0 .5353514.4318279.9690811.963871.9690811.5329032 0 .9647311-.4337297.9647311-.9690811 0-.5357838-.4318279-.9695135-.9647311-.9695135"/><path d="m53.007828 56.4244324c-1.0335484 0-1.8713979.8423784-1.8713979 1.8815135 0 1.0391352.8378495 1.8810811 1.8713979 1.8810811 1.0335483 0 1.8713978-.8419459 1.8713978-1.8810811 0-1.0391351-.8378495-1.8815135-1.8713978-1.8815135"/></g><path d="m58.0212473 46.5369081c-1.0335484 0-1.8713978.8428108-1.8713978 1.8815135 0 1.0391352.8378494 1.8815135 1.8713978 1.8815135s1.8713979-.8423783 1.8713979-1.8815135c0-1.0387027-.8378495-1.8815135-1.8713979-1.8815135" fill="#7b7c7f"/><path d="m49.8658065 17.2118054-1.2473119-2.6304865-.0163441-.0073513 4.5772043-4.4765406.0094624-.0043243z" fill="#f6c02d"/><path d="m46.023828 13.2362811 2.5810752 1.3262703.0064516.016 4.5767742-4.4765406.0047312-.0090811z" fill="#fff7ca"/><path d="m15.2943226 48.1847784-1.0266667-1.0611892 32.6916129-31.9606487 1.0266667 1.0616217z" fill="#f6c02d"/><path d="m13.975871 52.1290378-.8860215-2.7948108-.0051613-.0155675.9367742-.9163244h.0055914l.8937634 2.7874595z" fill="#f6c02d"/><path d="m10.3178495 48.3478919 2.7544086.9673513.0154838.0051892.9363441-.9163243v-.0051892l-2.7462365-.9747027z" fill="#fff7ca"/><path d="m12.2472688 53.8198919-.8860215-2.7948108-.0051613-.0155676.9367742-.9163243h.0055914l.8937635 2.7874594z" fill="#f6c02d"/><path d="m8.58924731 50.0387459 2.75440859.9673514.0154839.0051892.9363441-.9163243v-.0051892l-2.74623659-.9747027z" fill="#fff7ca"/><path d="m10.5186237 55.5107459-.88602155-2.7948108-.00516129-.0155675.93677424-.9163244h.0051612l.8941936 2.7874595z" fill="#f6c02d"/><path d="m6.86060215 51.7296 2.7539785.9673514.01548387.0051891.93677418-.9163243v-.0051892l-2.74623655-.9747027z" fill="#fff7ca"/><path d="m6.70812903 20.5871135c-.48430107.4726487-.94537634.96-1.38451613 1.4607568 10.147957-8.4722162 25.2348387-7.7911352 34.5776344 1.8854054 9.3432258 9.6756757 9.5737635 24.8575135.8503226 34.8051892.5105376-.4263784 1.0090323-.8756757 1.4933333-1.3478919 10.107957-9.8663784 10.3470968-26.1033514.5341936-36.2663784-9.8133334-10.163027-25.9630108-10.4034595-36.07096777-.5370811" fill="#f1f1f2"/><path d="m68.2738065 11.7075459c-7.5088173-7.54897293-17.4903226-11.70767563-28.1083871-11.70767563-10.6150538 0-20.5965592 4.1587027-28.1053764 11.70767563-7.50580644 7.5494055-11.64129031 17.5848649-11.64129031 28.2572973 0 10.6754595 4.13548387 20.710919 11.64129031 28.2598919 7.5088172 7.5494054 17.4903226 11.7050811 28.1053764 11.7050811 4.9260215 0 9.7329032-.8955676 14.2855914-2.6611892.7260215-.2819459 1.3913978-.5608648 2.036129-.8549189 3.5204301-1.5935135 6.7913978-3.696 9.7156989-6.246054 4.1767742-3.6467027 7.4972043-8.032 9.8662366-13.0365406 1.6683871-3.5161081 2.8111828-7.2614054 3.392258-11.1321081.1591398-1.0438919.2778495-2.1111351.3531183-3.1610811.0666667-.9422702.1010753-1.9104865.1010753-2.8730811 0-10.6724324-4.1329032-20.7078918-11.6417204-28.2572973zm-63.50236564 17.8962163c4.45978495-15.4214054 18.61849464-26.69578382 35.39397854-26.69578382 20.3565591 0 36.8580645 16.59329732 36.8580645 37.05686482 0 .8955676-.0322581 1.7855136-.0954839 2.6668109-.0696774.9885405-.1793548 1.9658378-.3273118 2.931027-.5462366 3.6410811-1.6193549 7.1074594-3.1436559 10.3178378-2.1982796 4.6438919-5.3307527 8.7558919-9.151828 12.0886487-2.6894624 2.3468108-5.723871 4.3065946-9.0124731 5.7954594-.6189247.2823784-1.2464516.544-1.8830108.7913514-4.1101075 1.5935135-8.5759139 2.4657297-13.244301 2.4657297-20.3535484 0-36.8546237-16.5902703-36.8546237-37.0568649 0-3.030054.36129032-5.9762162 1.04430107-8.7965405z" fill="#f6c02d"/></g></svg>